<?xml version="1.0" encoding="UTF-8" standalone="no"?><!DOCTYPE svg PUBLIC "-//W3C//DTD SVG 1.1//EN" "http://www.w3.org/Graphics/SVG/1.1/DTD/svg11.dtd"><svg width="100%" height="100%" viewBox="0 0 256 256" version="1.1" xmlns="http://www.w3.org/2000/svg" xmlns:xlink="http://www.w3.org/1999/xlink" xml:space="preserve" xmlns:serif="http://www.serif.com/" style="fill-rule:evenodd;clip-rule:evenodd;stroke-linejoin:round;stroke-miterlimit:1.41421;"><circle cx="127.981" cy="128" r="128" style="fill:#fff;"/><path d="M188.092,209.633c-2.999,0 -5.762,-1.993 -6.635,-5.057c-6.981,-24.483 -28.872,-41.585 -53.24,-41.585c-24.615,0 -45.978,16.593 -53.154,41.291c-1.076,3.703 -4.903,5.827 -8.578,4.734c-3.658,-1.089 -5.754,-4.976 -4.678,-8.679c8.92,-30.701 35.608,-51.329 66.408,-51.329c30.486,0 57.838,21.258 66.515,51.695c1.056,3.709 -1.057,7.584 -4.725,8.655c-0.637,0.186 -1.281,0.275 -1.913,0.275Z" style="fill:#5f6368;fill-rule:nonzero;"/><path d="M128.833,163.162l-1.66,0c-18.589,0 -33.712,-15.304 -33.712,-34.115l0,-20.321c0,-18.81 15.123,-34.115 33.712,-34.115l1.66,0c18.588,0 33.712,15.305 33.712,34.115l0,20.321c0,18.813 -15.124,34.115 -33.712,34.115Zm-1.66,-74.568c-10.971,0 -19.896,9.031 -19.896,20.132l0,20.321c0,11.102 8.925,20.133 19.896,20.133l1.66,0c10.971,0 19.896,-9.031 19.896,-20.133l0,-20.321c0,-11.101 -8.925,-20.132 -19.896,-20.132l-1.66,0Z" style="fill:#5f6368;fill-rule:nonzero;"/><path d="M128.29,232.862c-57.141,0 -103.629,-47.039 -103.629,-104.862c0,-57.823 46.488,-104.862 103.629,-104.862c57.14,0 103.628,47.039 103.628,104.862c0,57.823 -46.488,104.862 -103.628,104.862Zm0,-195.744c-49.523,0 -89.81,40.77 -89.81,90.882c0,50.112 40.287,90.882 89.81,90.882c49.523,0 89.81,-40.77 89.81,-90.882c0,-50.112 -40.287,-90.882 -89.81,-90.882Z" style="fill:#5f6368;fill-rule:nonzero;"/></svg>